<svg xmlns="http://www.w3.org/2000/svg" viewBox="0 0 468.84 339.52"><g data-name="Layer 2"><g data-name="Layer 1"><path fill="#fff5f5" d="M110,51.62c19.9-30.15,29.84-45.22,42.18-49.75,32-11.76,49.64,35.44,109.65,42.63,34.37,4.12,39.85-10,93.37-5.87,24.35,1.89,41.93,3.45,61.37,14.52,10.78,6.15,41.91,26.49,50.24,64.73,9.61,44.17-18.27,79.72-23.73,86.36-39.29,47.75-113.44,51.49-159.56,42-43.9-9-49-27.17-96.31-30.51-36.68-2.58-43,7.69-84.4,4.65-33.62-2.46-70.91-5.19-90.72-32.93-20.19-28.27-9.5-64.67-7.56-71.31C14.84,81.16,45.93,51.4,59.83,57,73.17,62.33,90.38,81.39,110,51.62Z"/><path fill="#fbac39" d="M313.23,156.94c43.87,5.76,39.1,45.07,39.1,45.07l-31.68-12.07Z"/><path fill="#b91d34" d="M351.28,188.14c-5.08.51-10.17.92-15.26,1.31s-10.19.7-15.28,1.05l.07-1,7.92,1.65c2.64.56,5.28,1.08,7.92,1.67l7.9,1.75c2.63.62,5.26,1.21,7.88,1.86-2.67-.43-5.32-.91-8-1.37l-8-1.47c-2.65-.48-5.29-1-7.94-1.54l-7.94-1.58a.49.49,0,0,1,.07-1c5.1-.27,10.19-.6,15.29-.82S346.17,188.25,351.28,188.14Z"/><path fill="#b91d34" d="M348.32,179.56c-2.23,1.06-4.49,2-6.75,3s-4.56,1.84-6.85,2.72-4.6,1.72-6.93,2.51l-3.49,1.18c-1.18.35-2.34.74-3.53,1.07,1.11-.54,2.24-1,3.35-1.53l3.4-1.44c2.26-1,4.55-1.84,6.85-2.72s4.6-1.72,6.92-2.51S346,180.23,348.32,179.56Z"/><path fill="#b91d34" d="M324.16,159.33c-.38,5.13-.86,10.26-1.36,15.38s-1.07,10.24-1.6,15.35a.49.49,0,0,1-1,0l-1.2-8.17c-.38-2.73-.8-5.45-1.16-8.19l-1.09-8.19c-.32-2.73-.68-5.47-1-8.21.53,2.71,1,5.43,1.48,8.14l1.37,8.15c.46,2.71.86,5.44,1.29,8.16l1.26,8.16-1,0c.62-5.1,1.17-10.22,1.84-15.32S323.39,164.42,324.16,159.33Z"/><path fill="#b91d34" d="M330.61,161.91c-.62,2.4-1.35,4.77-2.1,7.13s-1.54,4.71-2.35,7.05-1.66,4.67-2.56,7l-1.37,3.46c-.48,1.14-.94,2.29-1.46,3.42.31-1.2.67-2.39,1-3.59l1.1-3.55c.73-2.36,1.54-4.71,2.35-7.05s1.67-4.66,2.57-7S329.6,164.17,330.61,161.91Z"/><path fill="#b91d34" d="M337.73,166.32c-2.66,4.07-5.41,8.08-8.17,12.07-1.36,2-2.79,4-4.18,6l-4.21,5.94-.71-.68,5.69-4.5c1.91-1.49,3.79-3,5.72-4.48l5.76-4.42c1.94-1.45,3.86-2.92,5.82-4.34-1.82,1.6-3.68,3.15-5.52,4.72l-5.58,4.64c-1.85,1.56-3.75,3.06-5.63,4.59l-5.64,4.57a.5.5,0,0,1-.72-.68l4.28-5.89c1.43-2,2.84-4,4.3-5.89C331.83,174,334.74,170.15,337.73,166.32Z"/><path fill="#b91d34" d="M319.05,182.75c9.59,1.26,8.55,9.86,8.55,9.86L320.67,190Z"/><line x1="320.68" x2="314.69" y1="189.98" y2="195.17" fill="none" stroke="#b91d34" stroke-linecap="round" stroke-linejoin="round"/><path fill="#fbac39" d="M153.23,80.89c42-13.77,30.09-51.52,30.09-51.52L154.41,47.08Z"/><path fill="#b91d34" d="M184.85,43.19c-5,.84-10.09,1.57-15.15,2.28s-10.12,1.35-15.18,2a.5.5,0,0,1-.56-.42.51.51,0,0,1,.31-.53l7.51-3c2.51-1,5-2,7.52-3l7.55-2.92c2.54-.93,5.05-1.9,7.6-2.81C182,35.94,179.51,37,177,38.1l-7.44,3.18c-2.48,1.06-5,2.07-7.47,3.11l-7.49,3.08-.24-.95c5.07-.59,10.13-1.25,15.21-1.79S179.76,43.63,184.85,43.19Z"/><path fill="#b91d34" d="M183.52,52.18c-2.45-.23-4.88-.57-7.31-.92s-4.86-.76-7.28-1.18-4.83-.89-7.23-1.41l-3.6-.79c-1.19-.29-2.39-.56-3.58-.89,1.23.11,2.44.28,3.67.41l3.65.51c2.43.34,4.85.76,7.27,1.18s4.83.89,7.23,1.42S181.14,51.54,183.52,52.18Z"/><path fill="#b91d34" d="M163.52,76.52c-1.7-4.86-3.3-9.75-4.89-14.64s-3.09-9.82-4.64-14.72l1-.17.27,8.26c.08,2.75.19,5.51.24,8.26l.16,8.26c0,2.76.07,5.51,0,8.27-.22-2.75-.37-5.5-.55-8.25l-.45-8.25c-.15-2.75-.24-5.5-.37-8.26L154,47a.48.48,0,0,1,.47-.52.49.49,0,0,1,.49.35c1.47,4.94,3,9.85,4.42,14.8S162.2,71.55,163.52,76.52Z"/><path fill="#b91d34" d="M169.39,72.8c-1.42-2-2.74-4.14-4-6.25s-2.56-4.24-3.81-6.38-2.46-4.3-3.62-6.49l-1.73-3.29c-.55-1.11-1.13-2.21-1.65-3.34.72,1,1.38,2.07,2.07,3.1l2,3.15c1.32,2.1,2.57,4.24,3.81,6.38s2.46,4.3,3.62,6.49S168.33,70.55,169.39,72.8Z"/><path fill="#b91d34" d="M175.57,67.14c-3.65-3.21-7.23-6.5-10.79-9.8-1.8-1.63-3.54-3.32-5.31-5l-5.3-5a.49.49,0,0,1,0-.7.51.51,0,0,1,.6-.1L161.14,50c2.13,1.16,4.27,2.28,6.38,3.47L173.87,57c2.09,1.21,4.21,2.39,6.29,3.63-2.19-1-4.35-2.13-6.52-3.2l-6.48-3.28c-2.17-1.08-4.3-2.23-6.44-3.35l-6.44-3.36.58-.81,5.23,5.07c1.74,1.7,3.51,3.37,5.22,5.09C168.76,60.21,172.2,63.63,175.57,67.14Z"/><path fill="#b91d34" d="M154.17,54.45c9.2-3,6.58-11.27,6.58-11.27l-6.32,3.88Z"/><line x1="154.44" x2="147.59" y1="47.05" y2="43.05" fill="none" stroke="#b91d34" stroke-linecap="round" stroke-linejoin="round"/><path fill="none" stroke="#fecb5c" stroke-linecap="round" stroke-linejoin="round" d="M35.5,67.36S147,148.2,234.86,39.15c-.11.06,87.24,102.9,188.34,18.35"/><path fill="#fecb5c" d="M74.48 87.1s-2.1 16.48-6.39 15.2L81 106.13s6.44-7.41 5.66-15.81zM133.42 95.65s3.59 16.22-.88 16.47l13.4-.74s3.55-9.15 0-16.79zM166.56 89.46s7.65 14.75 3.4 16.14l12.75-4.16s1.07-9.76-4.35-16.22zM197.3 73.52s10.95 12.5 7.15 14.86l11.39-7.09s-1.28-9.73-8.08-14.71zM220.59 55.75S234.14 65.36 231 68.54L240.43 59s-3.51-9.17-11.29-12.43zM104.36 94.5s-1.6 15.6-2.6 15.6 10 3 14 1c0 0 2.59-11.47.8-15.24C116.56 95.86 109 95.89 104.36 94.5zM260.72 62.38s-6.5 15.29-10.28 12.9l11.33 7.18s8.21-5.38 9.74-13.68zM315.11 86.65s-1 16.58-5.32 15.61l13.09 2.93s5.91-7.84 4.55-16.16zM348.68 89.71S352 106 347.56 106.16l13.41-.54s3.68-9.09.23-16.79zM381.61 82.73s6.45 14.13 2.15 15.37l14-4s.19-10.35-5-17zM287.46 77.63s-5.79 14.58-6.75 14.31 8.81 5.61 13.2 4.77c0 0 5.62-10.33 4.91-14.44C298.82 82.27 291.5 80.23 287.46 77.63z"/><line x1="234.54" x2="234.54" y1="97.38" y2="110.35" fill="none" stroke="#fbac39" stroke-miterlimit="10"/><rect width="32.32" height="3.36" x="218.26" y="48.17" fill="#fbac39"/><rect width="32.32" height="3.36" x="218.26" y="89.22" fill="#fbac39"/><path fill="#b91d34" d="M246.13,51.54H222.7a22.23,22.23,0,0,0,0,37.68h23.43a22.23,22.23,0,0,0,0-37.68Z"/><ellipse cx="234.54" cy="94.98" fill="#b91d34" rx="2.39" ry="2.4"/><path fill="#b91d34" d="M231.43,110.35h5.26s4.55,23.52,3.12,30.48l-1.68-1.44-8.86,1.44S234.78,111.79,231.43,110.35Z"/><path fill="#d01d35" d="M230.56,51.54s-10,20.88,0,37.68h9c10-16.8,0-37.68,0-37.68h-9"/><line x1="234.42" x2="234.42" y1="48.17" y2="37.76" fill="none" stroke="#fbac39" stroke-miterlimit="10"/><path fill="#d33333" d="M238.27,130.83a13.77,13.77,0,0,1,.66,4.32,9.13,9.13,0,0,1-1,4.26c.15-1.45.19-2.85.2-4.27S238.16,132.3,238.27,130.83Z"/><line x1="422.09" x2="422.09" y1="107.06" y2="117.62" fill="none" stroke="#fbac39" stroke-miterlimit="10"/><rect width="26.32" height="2.74" x="408.83" y="66.99" fill="#fbac39"/><rect width="26.32" height="2.74" x="408.83" y="100.41" fill="#fbac39"/><path fill="#b91d34" d="M431.53,69.72H412.45a18.11,18.11,0,0,0,0,30.69h19.08a18.1,18.1,0,0,0,0-30.69Z"/><circle cx="422.09" cy="105.11" r="1.95" fill="#b91d34"/><path fill="#b91d34" d="M419.56,117.62h4.29s3.7,19.15,2.53,24.82L425,141.27l-7.21,1.17S422.29,118.79,419.56,117.62Z"/><path fill="#d01d35" d="M418.85,69.72s-8.11,17,0,30.69h7.31c8.12-13.68,0-30.69,0-30.69h-7.31"/><line x1="421.99" x2="421.99" y1="66.99" y2="57.75" fill="none" stroke="#fbac39" stroke-miterlimit="10"/><path fill="#d33333" d="M425.13,134.3a9.61,9.61,0,0,1,.6,3.51,6.83,6.83,0,0,1-.83,3.48c.06-1.21.08-2.33.08-3.48A32.12,32.12,0,0,1,425.13,134.3Z"/><line x1="35.94" x2="35.94" y1="116.38" y2="126.93" fill="none" stroke="#fbac39" stroke-miterlimit="10"/><rect width="26.32" height="2.74" x="22.69" y="76.31" fill="#fbac39"/><rect width="26.32" height="2.74" x="22.69" y="109.73" fill="#fbac39"/><path fill="#b91d34" d="M45.39,79H26.31a18.1,18.1,0,0,0,0,30.69H45.39a18.11,18.11,0,0,0,0-30.69Z"/><circle cx="35.94" cy="114.42" r="1.95" fill="#b91d34"/><path fill="#b91d34" d="M33.41,126.93H37.7s3.7,19.16,2.53,24.83l-1.36-1.17-7.21,1.17S36.14,128.11,33.41,126.93Z"/><path fill="#d01d35" d="M32.7,79s-8.11,17,0,30.69H40C48.13,96.05,40,79,40,79H32.71"/><line x1="35.85" x2="35.85" y1="76.31" y2="67.07" fill="none" stroke="#fbac39" stroke-miterlimit="10"/><path fill="#d33333" d="M39,143.62a10,10,0,0,1,.6,3.51,6.91,6.91,0,0,1-.84,3.47c.06-1.2.08-2.32.09-3.48A32,32,0,0,1,39,143.62Z"/><path fill="none" stroke="#b91d34" stroke-linecap="round" stroke-linejoin="round" d="M291.88,124.78s-13.43,27.47-22.66,29"/><path fill="#fecb5c" d="M267.87,151.56h0a4.59,4.59,0,0,1-6,2.11h0a4.28,4.28,0,0,1-1.64,5.91h0a5,5,0,0,1,3.91,5.26h0a5,5,0,0,1,6.53.64h0a4.27,4.27,0,0,1,4.22-4.45h0a4.61,4.61,0,0,1-1.27-6.2h0A5.23,5.23,0,0,1,267.87,151.56Z"/><path fill="#f36e34" d="M267.7,154.82h0a2.59,2.59,0,0,1-3.36,1.19h0a2.41,2.41,0,0,1-.92,3.33h0a2.81,2.81,0,0,1,2.2,2.95h0a2.83,2.83,0,0,1,3.67.36h0a2.41,2.41,0,0,1,2.38-2.5h0a2.59,2.59,0,0,1-.71-3.49h0A2.94,2.94,0,0,1,267.7,154.82Z"/><path fill="none" stroke="#b91d34" stroke-linecap="round" stroke-linejoin="round" d="M290.45 133.34c.2-.36-1.16-2.69-.73-4.31M287 139.53c.21-.37-1.15-2.69-.73-4.32M283.06 145.49c.2-.36-1.16-2.69-.73-4.31M278.56 151.59c.21-.36-1.15-2.68-.73-4.31M285.53 129.18c.3-.3 3 .31 4.44-.54M281.85 135.69c.3-.29 3 .31 4.44-.56M278.13 141.1c.32-.27 2.94.55 4.49-.18M273.93 148.47c.22-.36 2.91-.34 4.11-1.52"/><path fill="#fecb5c" d="M282.9,156.6h0l-2.06-9a1.77,1.77,0,0,1,1.52-2.18,2.19,2.19,0,0,1,2.4,1.63l2,8.89-3.75.66Z"/><path fill="#ee1c25" d="M284.76,147l2.08,9.09-.12,0a2.19,2.19,0,0,0-2.13-1,1.78,1.78,0,0,0-1.55,1.53l-.12,0-2.08-9.09a1.78,1.78,0,0,1,1.52-2.19A2.18,2.18,0,0,1,284.76,147Z"/><polygon fill="none" stroke="#fecb5c" stroke-linecap="round" stroke-linejoin="round" points="282.9 156.6 282.9 156.6 283.05 156.57 286.8 155.91 282.9 156.6"/><path fill="#fecb5c" d="M287.4,150.5h0l-2.07-9a1.77,1.77,0,0,1,1.53-2.18,2.18,2.18,0,0,1,2.4,1.62l2,8.9-3.74.66Z"/><path fill="#ee1c25" d="M289.26,140.91l2.08,9.1-.12,0a2.19,2.19,0,0,0-2.13-1,1.76,1.76,0,0,0-1.55,1.53l-.12,0-2.09-9.1a1.78,1.78,0,0,1,1.53-2.18A2.18,2.18,0,0,1,289.26,140.91Z"/><polygon fill="none" stroke="#fecb5c" stroke-linecap="round" stroke-linejoin="round" points="287.4 150.5 287.4 150.5 287.55 150.47 291.29 149.81 287.4 150.5"/><path fill="#fecb5c" d="M275.12,132.45l-.7-3.68,9.16-1.31a2.17,2.17,0,0,1,2.4,1.62,1.77,1.77,0,0,1-1.52,2.18l-9.31,1.34h0Z"/><path fill="#ee1c25" d="M283.58,127.46l-9.38,1.34,0,.12a2.16,2.16,0,0,1,1.72,1.6,1.76,1.76,0,0,1-.9,2l0,.12,9.38-1.35a1.77,1.77,0,0,0,1.52-2.18A2.17,2.17,0,0,0,283.58,127.46Z"/><polygon fill="none" stroke="#fecb5c" stroke-linecap="round" stroke-linejoin="round" points="274.42 128.77 275.12 132.45 275.15 132.6 275.15 132.6 274.42 128.77"/><path fill="#fecb5c" d="M271.42,139l-.71-3.68,9.16-1.31a2.18,2.18,0,0,1,2.41,1.62,1.77,1.77,0,0,1-1.53,2.18l-9.3,1.34h0Z"/><path fill="#ee1c25" d="M279.87,134l-9.37,1.34,0,.12a2.16,2.16,0,0,1,1.72,1.6,1.75,1.75,0,0,1-.9,2l0,.12,9.37-1.34a1.79,1.79,0,0,0,1.53-2.19A2.18,2.18,0,0,0,279.87,134Z"/><polygon fill="none" stroke="#fecb5c" stroke-linecap="round" stroke-linejoin="round" points="270.71 135.32 271.42 139 271.45 139.15 271.45 139.15 270.71 135.32"/><path fill="#fecb5c" d="M267.73,144.6l-.71-3.68,9.17-1.31a2.18,2.18,0,0,1,2.4,1.62,1.77,1.77,0,0,1-1.53,2.18l-9.3,1.34h0Z"/><path fill="#ee1c25" d="M276.19,139.61,266.81,141l0,.12a2.16,2.16,0,0,1,1.72,1.6,1.76,1.76,0,0,1-.9,2l0,.12,9.37-1.34a1.79,1.79,0,0,0,1.53-2.19A2.18,2.18,0,0,0,276.19,139.61Z"/><polygon fill="none" stroke="#fecb5c" stroke-linecap="round" stroke-linejoin="round" points="267.02 140.92 267.73 144.6 267.76 144.75 267.76 144.75 267.02 140.92"/><path fill="#fecb5c" d="M263.63,150.93l-.71-3.68,9.17-1.32a2.2,2.2,0,0,1,2.4,1.63,1.77,1.77,0,0,1-1.53,2.18l-9.3,1.34h0Z"/><path fill="#ee1c25" d="M272.09,145.94l-9.38,1.34,0,.12a2.16,2.16,0,0,1,1.72,1.6,1.76,1.76,0,0,1-.9,2l0,.12,9.37-1.35a1.77,1.77,0,0,0,1.53-2.18A2.18,2.18,0,0,0,272.09,145.94Z"/><polygon fill="none" stroke="#fecb5c" stroke-linecap="round" stroke-linejoin="round" points="262.92 147.25 263.63 150.93 263.66 151.07 263.66 151.08 262.92 147.25"/><path fill="#fecb5c" d="M291.1,144h0l-2.06-9a1.77,1.77,0,0,1,1.52-2.18,2.17,2.17,0,0,1,2.4,1.62l2,8.89-3.75.67Z"/><path fill="#ee1c25" d="M293,134.36l2.08,9.1h-.12a2.18,2.18,0,0,0-2.13-1,1.77,1.77,0,0,0-1.55,1.53h-.12L289,134.92a1.77,1.77,0,0,1,1.52-2.18A2.17,2.17,0,0,1,293,134.36Z"/><polygon fill="none" stroke="#fecb5c" stroke-linecap="round" stroke-linejoin="round" points="291.1 143.95 291.1 143.94 291.25 143.92 295 143.25 291.1 143.95"/><path fill="#fecb5c" d="M279,162.57h0l-2.07-9a1.77,1.77,0,0,1,1.53-2.18,2.17,2.17,0,0,1,2.4,1.62l2,8.89-3.74.67Z"/><path fill="#ee1c25" d="M280.87,153l2.08,9.1h-.12a2.17,2.17,0,0,0-2.13-1,1.76,1.76,0,0,0-1.55,1.53H279l-2.08-9.09a1.77,1.77,0,0,1,1.53-2.18A2.17,2.17,0,0,1,280.87,153Z"/><polygon fill="none" stroke="#fecb5c" stroke-linecap="round" stroke-linejoin="round" points="279.01 162.57 279.01 162.56 279.16 162.54 282.9 161.87 279.01 162.57"/><path fill="#fbac39" d="M288.79,117.75a6.63,6.63,0,1,0,8.74-2A6.36,6.36,0,0,0,288.79,117.75Zm4.62,2.49a1,1,0,0,1,1.35-.32l.6.35a1,1,0,0,1,.43,1.31l-.11.19a1,1,0,0,1-1.35.32l-.6-.35a1,1,0,0,1-.43-1.31Z"/><path fill="#fecb5c" d="M290,118.43a5.26,5.26,0,1,0,6.93-1.61A5,5,0,0,0,290,118.43Zm3.43,1.81a1,1,0,0,1,1.35-.32l.6.35a1,1,0,0,1,.43,1.31l-.11.19a1,1,0,0,1-1.35.32l-.6-.35a1,1,0,0,1-.43-1.31Z"/><line x1="296.4" x2="295.47" y1="117.73" y2="119.37" fill="none" stroke="#fbac39" stroke-linecap="round" stroke-linejoin="round" stroke-width=".75"/><line x1="295.04" x2="296.82" y1="118.04" y2="119.05" fill="none" stroke="#fbac39" stroke-linecap="round" stroke-linejoin="round" stroke-width=".75"/><line x1="293.72" x2="292.79" y1="122.46" y2="124.1" fill="none" stroke="#fbac39" stroke-linecap="round" stroke-linejoin="round" stroke-width=".75"/><line x1="292.37" x2="294.15" y1="122.78" y2="123.78" fill="none" stroke="#fbac39" stroke-linecap="round" stroke-linejoin="round" stroke-width=".75"/><line x1="292.39" x2="291.46" y1="118.34" y2="119.98" fill="none" stroke="#fbac39" stroke-linecap="round" stroke-linejoin="round" stroke-width=".75"/><line x1="291.03" x2="292.81" y1="118.66" y2="119.67" fill="none" stroke="#fbac39" stroke-linecap="round" stroke-linejoin="round" stroke-width=".75"/><line x1="297.94" x2="297.01" y1="121.48" y2="123.12" fill="none" stroke="#fbac39" stroke-linecap="round" stroke-linejoin="round" stroke-width=".75"/><line x1="296.58" x2="298.37" y1="121.8" y2="122.81" fill="none" stroke="#fbac39" stroke-linecap="round" stroke-linejoin="round" stroke-width=".75"/><path fill="none" stroke="#b91d34" stroke-linecap="round" stroke-linejoin="round" d="M379.79,156s13.43,27.47,22.66,29"/><path fill="#fecb5c" d="M403.8,182.78h0a4.61,4.61,0,0,0,6,2.12h0a4.28,4.28,0,0,0,1.64,5.91h0a5,5,0,0,0-3.91,5.26h0a5,5,0,0,0-6.53.64h0a4.27,4.27,0,0,0-4.21-4.45h0a4.62,4.62,0,0,0,1.26-6.2h0A5.23,5.23,0,0,0,403.8,182.78Z"/><path fill="#f36e34" d="M404,186.05h0a2.61,2.61,0,0,0,3.36,1.19h0a2.39,2.39,0,0,0,.92,3.32h0a2.82,2.82,0,0,0-2.2,3h0a2.83,2.83,0,0,0-3.67.36h0a2.42,2.42,0,0,0-2.38-2.51h0a2.58,2.58,0,0,0,.71-3.48h0A2.94,2.94,0,0,0,404,186.05Z"/><path fill="none" stroke="#b91d34" stroke-linecap="round" stroke-linejoin="round" d="M381.22 164.57c-.2-.37 1.16-2.69.73-4.32M384.72 170.75c-.21-.36 1.15-2.69.73-4.31M388.61 176.72c-.2-.37 1.16-2.69.73-4.32M393.11 182.82c-.21-.36 1.15-2.69.73-4.31M386.14 160.4c-.3-.29-3 .32-4.44-.54M389.82 166.92c-.3-.3-3 .3-4.43-.56M393.54 172.33c-.32-.27-2.94.55-4.49-.19M397.74 179.69c-.22-.36-2.91-.34-4.11-1.51"/><path fill="#fecb5c" d="M388.62,187.8l-3.74-.67,2-8.89a2.18,2.18,0,0,1,2.4-1.62,1.77,1.77,0,0,1,1.52,2.18l-2.06,9h0Z"/><path fill="#ee1c25" d="M386.91,178.24l-2.08,9.1.12,0a2.19,2.19,0,0,1,2.13-1,1.77,1.77,0,0,1,1.55,1.53l.12,0,2.08-9.1a1.77,1.77,0,0,0-1.52-2.18A2.18,2.18,0,0,0,386.91,178.24Z"/><polygon fill="none" stroke="#fecb5c" stroke-linecap="round" stroke-linejoin="round" points="384.88 187.13 388.62 187.8 388.77 187.83 388.77 187.83 384.88 187.13"/><path fill="#fecb5c" d="M384.12,181.7l-3.74-.67,2-8.89a2.17,2.17,0,0,1,2.4-1.62,1.77,1.77,0,0,1,1.53,2.18l-2.07,9h0Z"/><path fill="#ee1c25" d="M382.41,172.14l-2.08,9.09.12,0a2.19,2.19,0,0,1,2.13-1,1.78,1.78,0,0,1,1.55,1.53l.12,0,2.09-9.09a1.77,1.77,0,0,0-1.53-2.18A2.17,2.17,0,0,0,382.41,172.14Z"/><polygon fill="none" stroke="#fecb5c" stroke-linecap="round" stroke-linejoin="round" points="380.38 181.03 384.12 181.7 384.27 181.72 384.27 181.73 380.38 181.03"/><path fill="#fecb5c" d="M396.52,163.83h0l-9.31-1.33a1.78,1.78,0,0,1-1.52-2.19,2.19,2.19,0,0,1,2.4-1.62l9.17,1.32-.71,3.67Z"/><path fill="#ee1c25" d="M388.09,158.68l9.38,1.35,0,.11a2.17,2.17,0,0,0-1.72,1.6,1.76,1.76,0,0,0,.9,2l0,.11-9.37-1.34a1.78,1.78,0,0,1-1.53-2.18A2.19,2.19,0,0,1,388.09,158.68Z"/><polygon fill="none" stroke="#fecb5c" stroke-linecap="round" stroke-linejoin="round" points="396.52 163.83 396.52 163.82 396.55 163.68 397.25 160 396.52 163.83"/><path fill="#fecb5c" d="M400.22,170.38h0l-9.3-1.33a1.76,1.76,0,0,1-1.52-2.18,2.18,2.18,0,0,1,2.4-1.63l9.16,1.32-.71,3.68Z"/><path fill="#ee1c25" d="M391.8,165.24l9.37,1.34,0,.11a2.19,2.19,0,0,0-1.72,1.6,1.76,1.76,0,0,0,.9,2l0,.11L390.92,169a1.77,1.77,0,0,1-1.52-2.18A2.17,2.17,0,0,1,391.8,165.24Z"/><polygon fill="none" stroke="#fecb5c" stroke-linecap="round" stroke-linejoin="round" points="400.22 170.38 400.22 170.37 400.25 170.23 400.96 166.55 400.22 170.38"/><path fill="#fecb5c" d="M403.91,176h0l-9.3-1.33a1.77,1.77,0,0,1-1.53-2.18,2.2,2.2,0,0,1,2.4-1.63l9.17,1.32-.71,3.68Z"/><path fill="#ee1c25" d="M395.48,170.84l9.38,1.34,0,.11a2.19,2.19,0,0,0-1.72,1.6,1.76,1.76,0,0,0,.9,2l0,.11-9.37-1.34a1.77,1.77,0,0,1-1.53-2.18A2.18,2.18,0,0,1,395.48,170.84Z"/><polygon fill="none" stroke="#fecb5c" stroke-linecap="round" stroke-linejoin="round" points="403.91 175.98 403.91 175.97 403.94 175.83 404.65 172.15 403.91 175.98"/><path fill="#fecb5c" d="M408,182.3h0l-9.3-1.33a1.78,1.78,0,0,1-1.53-2.19,2.2,2.2,0,0,1,2.4-1.62l9.17,1.32-.71,3.67Z"/><path fill="#ee1c25" d="M399.58,177.16l9.38,1.35,0,.11a2.17,2.17,0,0,0-1.72,1.6,1.77,1.77,0,0,0,.9,2l0,.11L398.71,181a1.78,1.78,0,0,1-1.53-2.18A2.19,2.19,0,0,1,399.58,177.16Z"/><polygon fill="none" stroke="#fecb5c" stroke-linecap="round" stroke-linejoin="round" points="408.01 182.31 408.01 182.3 408.04 182.15 408.75 178.48 408.01 182.31"/><path fill="#fecb5c" d="M380.42,175.15l-3.75-.67,2-8.89a2.19,2.19,0,0,1,2.4-1.63,1.78,1.78,0,0,1,1.52,2.19l-2.06,9h0Z"/><path fill="#ee1c25" d="M378.71,165.59l-2.08,9.09.12,0a2.19,2.19,0,0,1,2.13-1,1.78,1.78,0,0,1,1.55,1.53l.12,0,2.08-9.09a1.79,1.79,0,0,0-1.52-2.19A2.18,2.18,0,0,0,378.71,165.59Z"/><polygon fill="none" stroke="#fecb5c" stroke-linecap="round" stroke-linejoin="round" points="376.68 174.48 380.42 175.15 380.57 175.17 380.57 175.18 376.68 174.48"/><path fill="#fecb5c" d="M392.51,193.76l-3.74-.66,2-8.89a2.2,2.2,0,0,1,2.4-1.63,1.78,1.78,0,0,1,1.53,2.18l-2.07,9h0Z"/><path fill="#ee1c25" d="M390.8,184.21l-2.08,9.09.12,0a2.19,2.19,0,0,1,2.13-1,1.79,1.79,0,0,1,1.56,1.53l.12,0,2.08-9.09a1.78,1.78,0,0,0-1.53-2.19A2.19,2.19,0,0,0,390.8,184.21Z"/><polygon fill="none" stroke="#fecb5c" stroke-linecap="round" stroke-linejoin="round" points="388.77 193.1 392.51 193.76 392.66 193.79 392.66 193.79 388.77 193.1"/><path fill="#fbac39" d="M374.14,147a6.09,6.09,0,1,0,8.74,2A6.36,6.36,0,0,0,374.14,147Zm4.23,4.7a1,1,0,0,1-.43,1.32l-.6.34A1,1,0,0,1,376,153l-.11-.19a1,1,0,0,1,.43-1.32l.6-.34a1,1,0,0,1,1.35.31Z"/><path fill="#fecb5c" d="M374.76,148.05a4.83,4.83,0,1,0,6.93,1.6A5,5,0,0,0,374.76,148.05Zm3.61,3.6a1,1,0,0,1-.43,1.32l-.6.34A1,1,0,0,1,376,153l-.11-.19a1,1,0,0,1,.43-1.32l.6-.34a1,1,0,0,1,1.35.31Z"/><line x1="375.27" x2="376.2" y1="148.96" y2="150.59" fill="none" stroke="#fbac39" stroke-linecap="round" stroke-linejoin="round" stroke-width=".75"/><line x1="376.63" x2="374.85" y1="149.27" y2="150.28" fill="none" stroke="#fbac39" stroke-linecap="round" stroke-linejoin="round" stroke-width=".75"/><line x1="377.95" x2="378.88" y1="153.69" y2="155.33" fill="none" stroke="#fbac39" stroke-linecap="round" stroke-linejoin="round" stroke-width=".75"/><line x1="379.3" x2="377.52" y1="154" y2="155.01" fill="none" stroke="#fbac39" stroke-linecap="round" stroke-linejoin="round" stroke-width=".75"/><line x1="379.29" x2="380.21" y1="149.57" y2="151.21" fill="none" stroke="#fbac39" stroke-linecap="round" stroke-linejoin="round" stroke-width=".75"/><line x1="380.64" x2="378.86" y1="149.88" y2="150.89" fill="none" stroke="#fbac39" stroke-linecap="round" stroke-linejoin="round" stroke-width=".75"/><line x1="373.73" x2="374.66" y1="152.71" y2="154.35" fill="none" stroke="#fbac39" stroke-linecap="round" stroke-linejoin="round" stroke-width=".75"/><line x1="375.09" x2="373.3" y1="153.02" y2="154.03" fill="none" stroke="#fbac39" stroke-linecap="round" stroke-linejoin="round" stroke-width=".75"/><path fill="none" stroke="#b91d34" stroke-linecap="round" stroke-linejoin="round" d="M56.66,142.54s-1.78,30.52,5.51,36.37"/><path fill="#fecb5c" d="M64.43,177.65h0a4.61,4.61,0,0,0,4.16,4.77h0a4.29,4.29,0,0,0-1.48,6h0a5,5,0,0,0-6,2.65h0a5,5,0,0,0-6-2.64h0a4.27,4.27,0,0,0-1.48-5.95h0a4.61,4.61,0,0,0,4.14-4.78h0A5.23,5.23,0,0,0,64.43,177.65Z"/><path fill="#f36e34" d="M63,180.58h0a2.6,2.6,0,0,0,2.34,2.68h0a2.4,2.4,0,0,0-.83,3.35h0a2.84,2.84,0,0,0-3.37,1.5h0a2.83,2.83,0,0,0-3.37-1.49h0a2.41,2.41,0,0,0-.84-3.35h0a2.59,2.59,0,0,0,2.33-2.69h0A2.94,2.94,0,0,0,63,180.58Z"/><path fill="none" stroke="#b91d34" stroke-linecap="round" stroke-linejoin="round" d="M53.71 150.69c0-.42 2.33-1.77 2.76-3.4M53.72 157.8c0-.42 2.33-1.78 2.75-3.4M54.18 164.91c0-.42 2.33-1.78 2.76-3.4M55.1 172.43c0-.42 2.33-1.77 2.76-3.4M60 149.48c-.12-.4-2.74-1.18-3.6-2.65M60 157c-.11-.4-2.73-1.19-3.58-2.66M60.63 163.5c-.15-.39-2.83-1-3.82-2.36M60.67 172c0-.42-2.37-1.73-2.84-3.34"/><path fill="#fecb5c" d="M48.74,174.56l-2.93-2.41L52,165.4a2.19,2.19,0,0,1,2.89-.24,1.77,1.77,0,0,1,.25,2.65l-6.23,6.85h0Z"/><path fill="#ee1c25" d="M52,165.4l-6.28,6.9.09.07a2.22,2.22,0,0,1,2.36.17,1.79,1.79,0,0,1,.6,2.1l.09.07,6.28-6.9a1.77,1.77,0,0,0-.25-2.65A2.19,2.19,0,0,0,52,165.4Z"/><polygon fill="none" stroke="#fecb5c" stroke-linecap="round" stroke-linejoin="round" points="45.81 172.15 48.74 174.56 48.86 174.66 48.86 174.66 45.81 172.15"/><path fill="#fecb5c" d="M47.82,167l-2.93-2.42L51,157.87a2.19,2.19,0,0,1,2.89-.23,1.77,1.77,0,0,1,.25,2.65l-6.23,6.85h0Z"/><path fill="#ee1c25" d="M51,157.88l-6.28,6.9.1.07a2.18,2.18,0,0,1,2.35.17,1.78,1.78,0,0,1,.6,2.09l.09.08,6.29-6.9a1.78,1.78,0,0,0-.26-2.65A2.18,2.18,0,0,0,51,157.88Z"/><polygon fill="none" stroke="#fecb5c" stroke-linecap="round" stroke-linejoin="round" points="44.89 164.62 47.82 167.04 47.94 167.14 47.94 167.14 44.89 164.62"/><path fill="#fecb5c" d="M67.4,157.56h0L60,151.83a1.77,1.77,0,0,1-.25-2.65,2.19,2.19,0,0,1,2.89-.24l7.33,5.65-2.42,2.85Z"/><path fill="#ee1c25" d="M62.59,148.94l7.5,5.78-.08.08a2.17,2.17,0,0,0-2.28.55,1.76,1.76,0,0,0-.19,2.16l-.08.09L60,151.83a1.77,1.77,0,0,1-.25-2.65A2.19,2.19,0,0,1,62.59,148.94Z"/><polygon fill="none" stroke="#fecb5c" stroke-linecap="round" stroke-linejoin="round" points="67.4 157.56 67.4 157.56 67.5 157.44 69.92 154.59 67.4 157.56"/><path fill="#fecb5c" d="M67.41,165.09h0L60,159.35a1.77,1.77,0,0,1-.25-2.65,2.18,2.18,0,0,1,2.89-.23l7.33,5.64L67.51,165Z"/><path fill="#ee1c25" d="M62.59,156.47l7.51,5.77-.08.09a2.15,2.15,0,0,0-2.28.55,1.74,1.74,0,0,0-.19,2.16l-.08.09L60,159.35a1.77,1.77,0,0,1-.25-2.65A2.17,2.17,0,0,1,62.59,156.47Z"/><polygon fill="none" stroke="#fecb5c" stroke-linecap="round" stroke-linejoin="round" points="67.41 165.09 67.41 165.08 67.51 164.97 69.93 162.11 67.41 165.09"/><path fill="#fecb5c" d="M67.87,171.78h0L60.43,166a1.77,1.77,0,0,1-.26-2.65,2.19,2.19,0,0,1,2.89-.23l7.33,5.64L68,171.66Z"/><path fill="#ee1c25" d="M63.06,163.16l7.5,5.77-.08.09a2.15,2.15,0,0,0-2.28.55,1.75,1.75,0,0,0-.19,2.16l-.08.09L60.42,166a1.78,1.78,0,0,1-.25-2.65A2.19,2.19,0,0,1,63.06,163.16Z"/><polygon fill="none" stroke="#fecb5c" stroke-linecap="round" stroke-linejoin="round" points="67.88 171.78 67.87 171.77 67.97 171.66 70.39 168.8 67.88 171.78"/><path fill="#fecb5c" d="M68.34,179.3h0l-7.45-5.73a1.77,1.77,0,0,1-.25-2.65,2.17,2.17,0,0,1,2.88-.24l7.34,5.65-2.42,2.85Z"/><path fill="#ee1c25" d="M63.52,170.68,71,176.46l-.08.09a2.19,2.19,0,0,0-2.29.54,1.75,1.75,0,0,0-.18,2.16l-.09.09-7.5-5.77a1.78,1.78,0,0,1-.26-2.65A2.19,2.19,0,0,1,63.52,170.68Z"/><polygon fill="none" stroke="#fecb5c" stroke-linecap="round" stroke-linejoin="round" points="68.34 179.3 68.34 179.3 68.44 179.18 70.86 176.33 68.34 179.3"/><path fill="#fecb5c" d="M47.81,159.51l-2.93-2.41L51,150.35a2.19,2.19,0,0,1,2.89-.24,1.78,1.78,0,0,1,.26,2.65l-6.24,6.85h0Z"/><path fill="#ee1c25" d="M51,150.35l-6.28,6.9.1.07a2.2,2.2,0,0,1,2.35.17,1.79,1.79,0,0,1,.6,2.1l.1.07,6.28-6.9a1.78,1.78,0,0,0-.26-2.65A2.19,2.19,0,0,0,51,150.35Z"/><polygon fill="none" stroke="#fecb5c" stroke-linecap="round" stroke-linejoin="round" points="44.88 157.1 47.81 159.51 47.93 159.61 47.93 159.61 44.88 157.1"/><path fill="#fecb5c" d="M49.21,181.67l-2.93-2.42,6.13-6.74a2.19,2.19,0,0,1,2.89-.24,1.77,1.77,0,0,1,.26,2.65l-6.23,6.85h0Z"/><path fill="#ee1c25" d="M52.41,172.51l-6.28,6.9.1.07a2.2,2.2,0,0,1,2.35.17,1.78,1.78,0,0,1,.6,2.1l.1.07,6.28-6.9a1.78,1.78,0,0,0-.26-2.65A2.19,2.19,0,0,0,52.41,172.51Z"/><polygon fill="none" stroke="#fecb5c" stroke-linecap="round" stroke-linejoin="round" points="46.27 179.25 49.21 181.67 49.33 181.77 49.33 181.77 46.27 179.25"/><path fill="#fbac39" d="M56.19,131.87a6.09,6.09,0,1,0,6.62,6.06A6.35,6.35,0,0,0,56.19,131.87ZM57.57,138a1,1,0,0,1-1,.94h-.69a1,1,0,0,1-1-.93v-.22a1,1,0,0,1,1-.94h.7a1,1,0,0,1,1,.94Z"/><path fill="#fecb5c" d="M56.2,133.13a4.83,4.83,0,1,0,5.24,4.8A5,5,0,0,0,56.2,133.13ZM57.57,138a1,1,0,0,1-1,.94h-.69a1,1,0,0,1-1-.93v-.22a1,1,0,0,1,1-.94h.7a1,1,0,0,1,1,.94Z"/><line x1="56.2" x2="56.2" y1="134.17" y2="136.06" fill="none" stroke="#fbac39" stroke-linecap="round" stroke-linejoin="round" stroke-width=".75"/><line x1="57.22" x2="55.17" y1="135.11" y2="135.12" fill="none" stroke="#fbac39" stroke-linecap="round" stroke-linejoin="round" stroke-width=".75"/><line x1="56.2" x2="56.21" y1="139.61" y2="141.49" fill="none" stroke="#fbac39" stroke-linecap="round" stroke-linejoin="round" stroke-width=".75"/><line x1="57.23" x2="55.18" y1="140.55" y2="140.55" fill="none" stroke="#fbac39" stroke-linecap="round" stroke-linejoin="round" stroke-width=".75"/><line x1="59.39" x2="59.39" y1="136.68" y2="138.56" fill="none" stroke="#fbac39" stroke-linecap="round" stroke-linejoin="round" stroke-width=".75"/><line x1="60.42" x2="58.37" y1="137.62" y2="137.62" fill="none" stroke="#fbac39" stroke-linecap="round" stroke-linejoin="round" stroke-width=".75"/><line x1="53.01" x2="53.01" y1="136.69" y2="138.57" fill="none" stroke="#fbac39" stroke-linecap="round" stroke-linejoin="round" stroke-width=".75"/><line x1="54.04" x2="51.99" y1="137.63" y2="137.63" fill="none" stroke="#fbac39" stroke-linecap="round" stroke-linejoin="round" stroke-width=".75"/><path fill="#e8a091" d="M406.91 246.17a58 58 0 00-8.47 3.58A31.56 31.56 0 00391 255a18 18 0 00-4.73 7.39 14.79 14.79 0 000 8.54c1.62 5.64 5.39 10.62 7.84 16.54a27.64 27.64 0 012.24 9.57 25 25 0 01-.37 5 28.5 28.5 0 01-1.45 4.82 30 30 0 01-2.26 4.49 37.38 37.38 0 01-3 4 42.39 42.39 0 01-3.4 3.56c-1.22 1.06-2.44 2.15-3.75 3.1a80.31 80.31 0 01-16.63 9.46c-1.41.62-2.93 1.22-4.44 1.82s-3.06 1.08-4.62 1.52a70.27 70.27 0 01-9.52 2.09 73.66 73.66 0 01-19.51.21l1.34-8.9a65.55 65.55 0 0017.25.87 63.78 63.78 0 008.58-1.34c1.42-.31 2.82-.71 4.22-1.11s2.75-.89 4.18-1.43a74 74 0 0015.88-7.76c1.24-.79 2.36-1.69 3.52-2.57a39.61 39.61 0 003.15-2.91 35.26 35.26 0 002.76-3.24 25.23 25.23 0 002.1-3.62 24.48 24.48 0 001.46-3.91 21.15 21.15 0 00.55-4.12 23.8 23.8 0 00-1.46-8.4 89.71 89.71 0 00-3.58-8.31 43 43 0 01-3.29-8.9 16.79 16.79 0 01.61-9.62 19.48 19.48 0 015.57-7.67 31.92 31.92 0 017.92-4.91A57.79 57.79 0 01406.91 246.17zM249.93 334.61l-5.67-1.42s-8.72-1.1-5.63 1.95 11.83 1.61 11.83 1.61z"/><path fill="#e3dad1" d="M283.06,251.51c.74,0,7.2.31,8.94,4.52,1.23,3-.67,6.22-1.54,7.71-3.12,5.3-8.85,6.81-10.4,7.2-3.92,1-11.67,1.54-13.57-2.28-1.73-3.48,2.44-8.56,3.83-10.25C271.56,256.9,276.17,251.29,283.06,251.51Z"/><path fill="#fff6f0" d="M369.15,325.43a10.27,10.27,0,0,0,.49-7.51,63.93,63.93,0,0,0-4.26-10.2c-1.14-2.19-3.73-6.84-10.61-14.85-9-10.53-13.57-15.8-18.68-17.72-10.42-3.91-21.42-.06-24.7,1.09-3.46,1.21-3.28,1.68-12.6,5.57-11.1,4.62-13.79,5-16.31,3.95-2.83-1.15-4.27-3.62-7.16-8.56-4.2-7.19-2.6-8.7-5.56-12.27-1-1.2-2.08-2.13-17.5-7.71-7.54-2.73-10.26-3.59-12.06-2.13-1.44,1.15-1.67,3.26-1.56,6.7A60.84,60.84,0,0,0,242,280.45c3.12,7.91,7,14.44,12.78,24.16,3.54,6,6.33,7.06,5.87,11.76-.16,1.67.65,5.58-2.91,9.31-3.29,3.45-8.86,5.15-9.27,11.17-.14,2.06,84.09.62,93.41,1,21.83.92,21.18-4.48,23.92-7.43A19.87,19.87,0,0,0,369.15,325.43Z"/><path fill="#fff6f0" d="M269.51,269.78c1.85-8,10.36-15,19.46-15,.45,0,10.85.13,13.3,6.45,1.73,4.46-1.54,9.29-3,11.41a20.86,20.86,0,0,1-11.89,8.22c-5.31,1.38-14.45,1.5-17.44-3.71C268.44,274.44,269.14,271.41,269.51,269.78Z"/><path fill="#e8a091" d="M276.06,270.76c1.42-6.16,4.19-7.52,12.25-10.17.34-.11,8.33-2.68,10.23,2.2,1.33,3.44-.92,6-2.33,7.42-4.07,4-7.85,6-9.17,6.34-4.1,1.06-8.37,1.11-10.68-2.91C275.18,271.57,275.77,272,276.06,270.76Z"/><circle cx="240.41" cy="256.57" r="2.57" fill="#e8a091"/><ellipse cx="260.39" cy="267.71" fill="#300" rx="2.41" ry="3.12" transform="rotate(-45.99 260.357 267.7)"/><circle cx="261.06" cy="267.74" r="1.34" fill="#fff"/><circle cx="258.72" cy="267.52" r=".6" fill="#fff"/><path fill="#ee1c25" d="M252.59,301.57a27.29,27.29,0,0,0,4.34-.3c.71-.07,1.42-.23,2.13-.34l2.1-.49A28.2,28.2,0,0,0,269,297a25.28,25.28,0,0,0,6.36-5.67,25.68,25.68,0,0,0,2.49-3.52c.79-1.21,1.34-2.55,2.07-3.82q-.37,1-.78,2a16.33,16.33,0,0,1-.86,2,26.23,26.23,0,0,1-2.31,3.75,22.49,22.49,0,0,1-6.44,6,24.59,24.59,0,0,1-8.17,3.33A25.51,25.51,0,0,1,252.59,301.57Z"/><path fill="#fbac39" d="M274.27 295.65a3 3 0 103 3.09A3 3 0 00274.27 295.65zm-.07 4a.93.93 0 010-1.86.93.93 0 110 1.86zM261.81 301.78a3 3 0 103 3.09A3 3 0 00261.81 301.78zm-.07 4a.93.93 0 110-1.86.93.93 0 010 1.86zM281.87 286.12a3 3 0 103 3.09A3 3 0 00281.87 286.12zm-.07 4a.93.93 0 11.94-.92A.93.93 0 01281.8 290.09z"/><polygon fill="#6d2632" points="71.16 338.96 73.48 248.85 73.52 247.53 73.52 247.5 86.77 164.11 86.78 165.1 83.97 83.35 97.06 164.09 97.08 164.26 97.06 165.08 94.42 249.47 94.46 248.11 103.14 337.83 71.16 338.96"/><path fill="#6d2632" d="M202.65,108.1l-44.07,15.29.25-.11-33.14,19.51a2.38,2.38,0,0,1-2.67-.17l-.12-.09-23.27-18,5.41-1.83-8.9,43.15A4.5,4.5,0,0,1,87.32,164a1.89,1.89,0,0,0,.05-.23l11.12-42.63.05-.18a3.29,3.29,0,0,1,5.36-1.65l22.17,19.37-2.79-.26,34.23-17.53.07,0a.56.56,0,0,1,.18-.07Z"/><path fill="#6d2632" d="M183.59 97.52c-.81 1.91-1.69 3.78-2.58 5.64s-1.82 3.69-2.79 5.5-1.92 3.64-2.91 5.43-2 3.58-3 5.35l-.38-2.84q5.37 4.56 10.53 9.31l-1.69-.66q4.61 0 9.21.13c3.07.09 6.14.2 9.22.39l.85 0 .46.44c2.32 2.27 4.57 4.63 6.82 7 1.09 1.21 2.21 2.39 3.29 3.62s2.16 2.46 3.19 3.74c-1.4-.86-2.76-1.77-4.12-2.68s-2.67-1.88-4-2.81c-2.62-1.93-5.25-3.86-7.79-5.87l1.31.5c-3.08.18-6.15.29-9.22.38s-6.14.12-9.21.13h-1l-.72-.66q-5.16-4.75-10.15-9.71l-1.38-1.38 1-1.45q1.76-2.53 3.56-5t3.69-4.93c1.23-1.65 2.52-3.25 3.81-4.86S182.19 99.06 183.59 97.52zM141 97.52c-.95 2.78-2 5.47-3.18 8.14s-2.36 5.28-3.61 7.87l.35-1.27c.74 8 1 16.1 1 24.15l-.65-2 2.2 3.14c.74 1 1.44 2.12 2.16 3.17 1.43 2.13 2.83 4.27 4.2 6.44L142 146c4 1.61 7.86 3.31 11.73 5.16 1.93.93 3.86 1.87 5.76 2.88s3.8 2 5.66 3.19c-2.17-.25-4.3-.61-6.42-1s-4.22-.82-6.31-1.28c-4.19-.93-8.32-2-12.42-3.16l-.78-.22-.73-.9q-2.4-3-4.7-6.08c-.76-1-1.55-2-2.29-3.08l-2.25-3.1-.65-.9v-1.13c0-8 .3-16.1 1-24.15l.08-.91L130 111c1.72-2.32 3.46-4.62 5.29-6.87S139 99.65 141 97.52zM194.93 239l-43.25 6.83a1.86 1.86 0 01-.71 0l-.25-.07L136.59 242a1.73 1.73 0 01-.5-.22l-.37-.23a26.84 26.84 0 00-3.47-1.84 8.8 8.8 0 00-1.57-.53 1.48 1.48 0 00-.49-.06h.13a2 2 0 00.39-.06l.3-.09c.32-.14.33-.18.31-.11s-.13.21-.22.41a11.29 11.29 0 00-.61 1.5 26.32 26.32 0 00-.92 3.7 3.81 3.81 0 01-4.4 3.11h0l-.42-.07-35.25-6.15 5.62-1.7L88 248a6.5 6.5 0 11-9.9-8.44 4.48 4.48 0 01.47-.5l8-7.59.45-.43a5.41 5.41 0 015.17-1.27l34.4 9.84-4.83 3a32.84 32.84 0 011.76-4.8 18 18 0 011.38-2.49A9.49 9.49 0 01126 234a6.45 6.45 0 012-1.48 3.76 3.76 0 01.82-.29 3.93 3.93 0 01.94-.15l.44 0 .27 0 .53 0a9.43 9.43 0 011.69.43 16.24 16.24 0 012.54 1.17 33.07 33.07 0 014.14 2.81l-.87-.45 13.66 5.27-1-.1zM177.93 222.22a69.85 69.85 0 01-7.56.69q-3.75.17-7.46.07c-2.48 0-4.95-.17-7.41-.33s-4.91-.41-7.36-.69a3.83 3.83 0 01-3.37-4.24c0-.12 0-.24 0-.36l.05-.2q.57-2.7 1.21-5.4c.44-1.79.88-3.58 1.38-5.36s1-3.55 1.55-5.32 1.13-3.52 1.74-5.27v1.42c-.15-1.39-.33-2.77-.44-4.18s-.24-2.8-.32-4.21a74 74 0 010-8.56 71.91 71.91 0 013.79 7.68c.55 1.3 1.09 2.6 1.59 3.91s1 2.63 1.46 3.95a1.58 1.58 0 01.09.74l-.09.68q-.35 2.76-.8 5.5c-.31 1.82-.61 3.64-1 5.45s-.75 3.61-1.16 5.41-.86 3.58-1.33 5.37l-3.27-4.8c2.42.42 4.84.87 7.26 1.39s4.81 1.09 7.2 1.74 4.78 1.35 7.15 2.16A69.77 69.77 0 01177.93 222.22z"/><path fill="#6d2632" d="M126.63,232l41.07-29.47-35.19,36.29a4.52,4.52,0,0,1-6.49-6.3A4.94,4.94,0,0,1,126.63,232Z"/><path fill="#eaa0ca" d="M138.62 113.39c0 3-2.06 5.48-4.6 5.48s-4.61-2.45-4.61-5.48 1.75-2.83 4.29-2.83S138.62 110.37 138.62 113.39zM150.06 131.15c0 3-1.74 2.84-4.29 2.84s-4.6-2.46-4.6-5.48 2.06-5.48 4.6-5.48S150.06 128.13 150.06 131.15z"/><path fill="#e0adcd" d="M144.34 106.59c0 2-1.66 6.23-3.33 6.23s-2.7-4.25-2.7-6.23a3.06 3.06 0 116 0zM137 124.35a3.35 3.35 0 01-3 3.59c-1.67 0-3.34 1-3.34-.94s1.67-6.24 3.34-6.24A3.35 3.35 0 01137 124.35zM145.93 138.71c0 2-1.67 6.23-3.33 6.23s-2.7-4.25-2.7-6.23a3.06 3.06 0 116 0zM153 149.88c2 .26 6 2.47 5.74 4.13s-5.68 3.64-7.65 3.38-2.27-3.34-2-5A3.35 3.35 0 01153 149.88zM140.21 131.15a3.06 3.06 0 11-6 0c0-2 1-.94 2.7-.94S140.21 129.17 140.21 131.15zM148.16 156a3.07 3.07 0 11-6 0c0-2 1-.95 2.7-.95S148.16 154.06 148.16 156z"/><path fill="#eaa0ca" d="M200.27 129.64c0 3-1.75 2.83-4.29 2.83s-4.61-2.45-4.61-5.47 2.06-5.48 4.61-5.48S200.27 126.61 200.27 129.64zM171.67 117.17c0 3-2.06 5.48-4.61 5.48s-4.92.19-4.92-2.83 2.38-8.13 4.92-8.13S171.67 114.14 171.67 117.17zM189.78 106.21c0 3-1.74 2.84-4.29 2.84s-4.6-2.46-4.6-5.48 2.06-5.48 4.6-5.48S189.78 103.19 189.78 106.21z"/><path fill="#e0adcd" d="M177.71 119.82c0 2-1 .94-2.7.94a3.64 3.64 0 010-7.18C176.67 113.58 177.71 117.83 177.71 119.82zM162.71 128.14c0 2-1 .94-2.7.94a3.64 3.64 0 010-7.17C161.67 121.91 162.71 126.16 162.71 128.14zM156.1 146.83c0 2-1 .95-2.7.95a3.64 3.64 0 010-7.18C155.07 140.6 156.1 144.85 156.1 146.83zM197.09 108.86c0 2-1 .94-2.7.94a3.64 3.64 0 010-7.18C196.06 102.62 197.09 106.87 197.09 108.86zM179.93 106.21a3.07 3.07 0 11-6 0c0-2 1-.94 2.71-.94S179.93 104.23 179.93 106.21zM160.93 116.91a3.07 3.07 0 11-6 0c0-2 1-.94 2.71-.94S160.93 114.93 160.93 116.91z"/><path fill="#eaa0ca" d="M233.66 322.37c-1.11 2.72-2.61 1.64-4.9.32s-3.24-4.61-2.13-7.33 3.87-3.85 6.16-2.53S234.77 319.65 233.66 322.37zM196.53 140.48c-1.11 2.73-3.87 3.86-6.16 2.53s-4.5-2.39-3.38-5.11 5.13-6.06 7.42-4.74S197.65 137.76 196.53 140.48zM216.85 140.06c-1.11 2.72-2.61 1.64-4.9.31s-3.24-4.6-2.13-7.32 3.87-3.86 6.16-2.53S218 137.33 216.85 140.06z"/><path fill="#e0adcd" d="M207.64 127.16a2.83 2.83 0 01-4 1.66c-1.5-.87-3.38-.81-2.65-2.59s3.8-4.74 5.29-3.87A3.92 3.92 0 01207.64 127.16zM201 146c-.73 1.79-1.28.32-2.78-.55a3.92 3.92 0 01-1.39-4.8 2.82 2.82 0 014-1.66C202.35 139.86 201.72 144.22 201 146zM222.45 146.24c-.73 1.78-1.28.31-2.78-.56a3.92 3.92 0 01-1.39-4.8 2.81 2.81 0 014-1.65C223.81 140.09 223.18 144.45 222.45 146.24zM257.45 199.75c-.73 1.79-1.28.32-2.78-.55a3.92 3.92 0 01-1.39-4.8 2.82 2.82 0 014-1.66C258.81 193.61 258.18 198 257.45 199.75zM232.84 259.45c-.73 1.78-3.79 4.73-5.29 3.87s-.87-5.23-.14-7a2.82 2.82 0 014-1.65A3.91 3.91 0 01232.84 259.45zM203.84 181c-.73 1.79-3.79 4.74-5.29 3.87s-.87-5.22-.14-7a2.82 2.82 0 014-1.65A3.9 3.9 0 01203.84 181zM208 134.93a2.82 2.82 0 01-4 1.66 3.92 3.92 0 01-1.4-4.8c.73-1.78 1.28-.31 2.78.55S208.72 133.15 208 134.93z"/><path fill="#eaa0ca" d="M154.83 174.61c0 3-2.06 5.48-4.61 5.48s-4.6-2.46-4.6-5.48 1.74-2.84 4.28-2.84S154.83 171.58 154.83 174.61zM148.16 203.33c0 3-2.07 5.48-4.61 5.48s-4.93.19-4.93-2.84 2.39-8.12 4.93-8.12S148.16 200.3 148.16 203.33z"/><path fill="#e0adcd" d="M160.55 167.81c0 2-1.67 6.23-3.34 6.23s-2.7-4.25-2.7-6.23a3.07 3.07 0 116 0zM153.24 185.57a3.34 3.34 0 01-3 3.59c-1.66 0-3.33 1-3.33-.95s1.67-6.23 3.33-6.23A3.34 3.34 0 01153.24 185.57zM160.23 213.53c0 2-1 .94-2.7.94a3.64 3.64 0 010-7.17C159.2 207.3 160.23 211.55 160.23 213.53zM169.45 205.59c0 2-1.67 6.24-3.34 6.24s-2.7-4.25-2.7-6.24a3.07 3.07 0 116 0zM162.14 199.93c0 2-1.67 6.23-3.34 6.23s-2.7-4.25-2.7-6.23a3.07 3.07 0 116 0zM159.28 181.41c0 2-1.67 6.24-3.34 6.24s-2.7-4.26-2.7-6.24a3.07 3.07 0 116 0z"/><path fill="#eaa0ca" d="M190.64 245.54c-1.12 2.72-2.62 1.64-4.9.31a6 6 0 01-2.13-7.32c1.11-2.72 3.87-3.85 6.16-2.53S191.75 242.82 190.64 245.54zM171.12 223.74c-1.12 2.72-3.87 3.85-6.16 2.53s-4.5-2.4-3.39-5.12 5.13-6.06 7.42-4.74S172.23 221 171.12 223.74zM153.32 219.46c-1.11 2.72-3.87 3.86-6.16 2.53s-4.5-2.39-3.39-5.11 5.13-6.07 7.42-4.74S154.43 216.74 153.32 219.46zM184.34 296.38c-1.12 2.72-2.62 1.64-4.9.31s-3.24-4.6-2.13-7.32 3.87-3.85 6.16-2.53S185.45 293.66 184.34 296.38z"/><path fill="#e0adcd" d="M184.81 221.52a2.81 2.81 0 01-4 1.66c-1.5-.87-3.38-.8-2.65-2.58s3.79-4.74 5.29-3.87A3.9 3.9 0 01184.81 221.52zM225.93 200.28c-.72 1.79-1.27.32-2.77-.55a3.92 3.92 0 01-1.39-4.8 2.82 2.82 0 014-1.66C227.3 194.14 226.66 198.5 225.93 200.28zM177.58 219.45a2.82 2.82 0 01-4 1.65 3.91 3.91 0 01-1.39-4.8c.73-1.78 1.28-.31 2.78.56S178.31 217.66 177.58 219.45z"/><path fill="#eaa0ca" d="M133.93,226c-1.2,2.67-2.66,1.52-4.91.09a6,6,0,0,1-1.89-7.41c1.2-2.67,4-3.68,6.24-2.25S135.13,223.33,133.93,226Z"/><path fill="#e0adcd" d="M139.33 232.43c-.79 1.75-1.29.25-2.76-.68a4 4 0 01-1.24-4.86 2.79 2.79 0 014.09-1.47C140.89 226.35 140.11 230.68 139.33 232.43zM127.29 230.35c-.78 1.75-3.94 4.56-5.41 3.63s-.7-5.27.09-7a2.78 2.78 0 014.08-1.47A4 4 0 01127.29 230.35z"/><path fill="#eaa0ca" d="M149.77,249.59a4.17,4.17,0,0,1-6.44-1.23,6.18,6.18,0,0,1,1-7.65c2.06-1.77,2.95,0,4.45,2.47S151.83,247.81,149.77,249.59Z"/><path fill="#e0adcd" d="M157.75 251.1c-1.35 1.17-5.22 2.05-6.2.45s1.31-5.1 2.66-6.26a2.73 2.73 0 014.22.8A4 4 0 01157.75 251.1zM140.28 241.66c-1.35 1.16-5.23 2.05-6.2.44s1.31-5.09 2.66-6.26a2.72 2.72 0 014.21.8A4.05 4.05 0 01140.28 241.66zM138.52 252a3.46 3.46 0 01-2.7-3.92c.17-2-.54-4.06 1.12-3.86s5.05 2.6 4.89 4.57S140.18 252.19 138.52 252z"/><path fill="#eaa0ca" d="M160,235.68c1.22-2.65,2.67-1.48,4.9,0a6,6,0,0,1,1.81,7.44c-1.23,2.65-4,3.61-6.26,2.15S158.8,238.33,160,235.68Z"/><path fill="#e0adcd" d="M161 249.28c.81-1.73 1.29-.23 2.75.73a4 4 0 011.19 4.87 2.79 2.79 0 01-4.11 1.41C159.41 255.34 160.24 251 161 249.28zM169 242.39c.81-1.74 4-4.5 5.46-3.54s.64 5.27-.17 7a2.79 2.79 0 01-4.1 1.41A4 4 0 01169 242.39zM200.62 106.29c-1.08-1.51.27-1.52 1.54-2.8a2.71 2.71 0 014.26.41 4.07 4.07 0 01-.35 5.06C204.8 110.25 201.7 107.8 200.62 106.29zM187 113.77c0 2-1.67 6.23-3.33 6.23s-2.71-4.25-2.71-6.23a3.07 3.07 0 116 0z"/><path fill="#eaa0ca" d="M133.89,252.54c-1.2,2.67-2.66,1.52-4.91.09a6,6,0,0,1-1.89-7.41c1.2-2.67,4-3.68,6.24-2.25S135.09,249.87,133.89,252.54Z"/><path fill="#e0adcd" d="M135.92,139.83c0,2-1,.95-2.7.95a3.64,3.64,0,0,1,0-7.18C134.89,133.6,135.92,137.85,135.92,139.83Z"/><line x1="2.13" x2="452.13" y1="338.02" y2="338.02" fill="none" stroke="#f43b3b" stroke-miterlimit="10" stroke-width="3"/></g></g></svg>