<svg xmlns="http://www.w3.org/2000/svg" enable-background="new 0 0 2000 2000" viewBox="0 0 2000 2000"><switch><g><path fill="#dbf8ff" d="M276.2,1232c-6.8-64-5.7-151.5,48.5-200.4c94.1-84.9,242.3,30.9,420.3-30.9
				c198.8-69.1,261.4-254.2,396.6-258.8c104.5-3.6,230.3,50.1,433.8,276.2c113.3,125.9,166.8,215.2,162.7,240.2
				C1728.5,1317.4,1367.4,1308.2,276.2,1232z"/><path fill="#ffe6c4" d="M662.7,1669.4c-4.9-89.9,437.4-147.1,580.3-154.9c52.4-2.9,208.4-15.1,285.1,66.4
				c24.2,25.8,56.9,73.1,44.6,96.8c-18,34.8-21.9,1.3-149-5.8c-156.5-8.7-194.2,60.6-352.6,84.4
				C879.5,1784.9,665.7,1723.6,662.7,1669.4z"/><path fill="#e0a9a5" d="M1108,713.2l-8.9,1.9l-6.2,471.2c0,0.8,6.7,1.5,15.1,1.5s15.1-0.7,15.1-1.5L1108,713.2z"/><path fill="#f9dede" d="M1110.9 713.2c0 0 114.6 36.4 256.7 47.7 0 0-182.8-42.4-253.5-56M1104.1 705c0 0-64.7-157-66.2-232.6 0 0 41.2 121 79.6 231L1104.1 705z"/><path fill="#e0a9a5" d="M1119.9,699.4c0,0-29.4,9.1-33.6,15.8s3.1,13.2,7.3,11.7c4.2-1.5,29.5-19.2,29.5-19.2L1119.9,699.4z"/><path fill="#f9dede" d="M1109,709.3c0,0,4.2,1.9,0,11.2s-100.7,107.2-170,154.1C939,874.6,1028.9,764.5,1109,709.3z"/><circle cx="1122" cy="703.4" r="4.5" fill="#e5847d"/><g><path fill="#e0a9a5" d="M730.4,721.3l-9.3,2l-6.5,493.5c0,0.9,7.1,1.6,15.8,1.6c8.7,0,15.8-0.7,15.8-1.6L730.4,721.3z"/><path fill="#f9dede" d="M733.4 721.3c0 0 120.1 38.1 268.8 49.9 0 0-191.5-44.4-265.5-58.7M726.2 712.6c0 0-67.7-164.4-69.3-243.6 0 0 43.2 126.7 83.4 241.9L726.2 712.6z"/><path fill="#e0a9a5" d="M742.8,706.8c0,0-30.8,9.5-35.2,16.5c-4.4,7,3.3,13.8,7.7,12.3s30.9-20.1,30.9-20.1L742.8,706.8z"/><path fill="#f9dede" d="M731.4,717.1c0,0,4.4,2,0,11.8c-4.4,9.8-105.5,112.3-178,161.4C553.4,890.2,647.5,775,731.4,717.1z"/><circle cx="745" cy="710.9" r="4.7" fill="#e5847d"/></g><g><path fill="#f9dede" d="M1888,1389.4c-20.9,25.6-172.9,7.8-241-2.5c-639.1-96.8-839,191-979.1,131.1
				c-119.2-51,70.4-101.9-24.6-175.1c-46.1-35.5-127.5-25.9-245.7,15.4c-21.7,7.6-112.9,34.2-200.5,19.5
				c-181.6-30.6-13.2-116.1-13.2-116.1l29.9-16.2l10.8-0.5l373.6,4.1l0.5,0c41.2-1.5,68.8-6.9,97.6-14.1
				c50-12.5,103.5-30.5,237.2-44c32.9-3.3,70.6-6.4,114.3-9c269.1-16.1,386.4,26.6,440.8,35.4c0.3,0,0.5,0.1,0.8,0.1
				c76.2,12,129.6,17.2,200.2,19.9c8.9,0.3,18.2,0.7,27.8,0.9l9.4,5.8l41.2,25.5l111.5,69.1
				C1897.1,1349.6,1901.1,1373.4,1888,1389.4z"/><path fill="#f9d4d4" d="M598.2 1249c-71.5 20.5-132.5 54.2-127.3 38.6 7.7-23-63 21.5-144.5 24.6s38.3-23.5-37.1-39.7c-35.7-7.7-75.4-11.7-92.1-13.4l4.3-5.6 23.1-8.5L598.2 1249zM1768 1269.6c0 43.3-61 56-280.9-4.9-40.5-11.2-178.5-.7-233.8-13.7-55.3-13-137-3.4-201.6 16.6s-128.1-9.4-85.1-28.8c117.2-52.9-163.6 5.4-265.3-3.5-1.7-.2-3.3-.3-5-.4 50-12.5 103.5-30.5 237.2-44 187.5 6.2 394.6 14.9 555.2 26.4 82.1 5.9 152.1 12.6 201 20 14.2 2.2 26.7 4.4 37.1 6.7L1768 1269.6z"/><path fill="#899208" d="M1570.3,1265.9c-50-9.9-133.7-38.7-151.3-38.8c-5.4-0.1-4.8,2.8,4.5,9.7c20.4,15.1,27.3,30.1,25.1,39.7
				c-2,9.2-12.4,13.6-26.8,8.7c-1.2-0.4-2.6-0.8-4.4-1.3c-41.1-11.8-231-48.1-284.7-47.1c-0.5,0-0.9,0-1.4,0
				c-53.9,1.7-146.1,27.8-137.4,12.2c8.7-15.6,57.4-24.3,36.5-26.9c-13.8-1.7-186.9,2.1-303.6,4.9c-60.5,1.5-105.9,2.7-105.9,2.7
				l70.8-45l161.3-102.5l295.6-188c0,0,600.1,361.8,614,372.2C1776.6,1276.8,1727.3,1297.1,1570.3,1265.9z"/><path fill="#7c8808" d="M1448.6,1276.5c-2,9.2-12.4,13.6-26.8,8.7c-1.2-0.4-2.6-0.8-4.4-1.3c-41.1-11.8-231-48.1-284.7-47.1
				c-0.5,0-0.9,0-1.4,0c-53.9,1.7-146.1,27.8-137.4,12.2c8.7-15.6,57.4-24.3,36.5-26.9c-13.8-1.7-186.9,2.1-303.6,4.9l-35-42.4
				l161.3-102.5c58.3,35.8,168.7,90.9,305,98c137.6,7.1,213.4,25.3,260.9,47c-5.4-0.1-4.8,2.8,4.5,9.7
				C1444,1251.9,1450.8,1266.9,1448.6,1276.5z"/><path fill="#a5a816" d="M707,1247.3c-169.6,3.5-217.2,75.2-201.6,43.9c4.4-8.8,7.4-16.1,8.4-21.7c2.4-14.5-9-18.5-46.6-11.3
				c-49.6,9.4-136.6,32.7-168,29.2c-31.3-3.5-3.5-22.6-15.6-22.6c-12.2,0-65.7,0.9-99.6-3l385.7-200.5L965.8,1222
				C965.8,1222,975.9,1241.7,707,1247.3z"/><path fill="#b7b016" d="M514.1,1269.4l-0.3,0.1c2.4-14.5-9-18.5-46.6-11.3c-49.6,9.4-136.6,32.7-168,29.2
				c-31.3-3.5-3.5-22.6-15.6-22.6c-12.2,0-65.7,0.9-99.6-3l385.7-200.5C621.9,1133.7,514.1,1269.4,514.1,1269.4z"/><path fill="#dbf8ff" d="M791.7,898.1c0-31.5-25.5-57-57-57c-3.5,0-7,0.3-10.3,1c-12.9-25.2-39-42.4-69.2-42.4
				c-1.8,0-3.6,0.1-5.4,0.2c-17.3-37.8-55.5-64.1-99.8-64.1c-53.4,0-97.9,38.2-107.7,88.8c-5.7-1.6-11.6-2.4-17.8-2.4
				c-36.7,0-66.5,29.8-66.5,66.5c0,15.8,5.5,30.2,14.6,41.6l0,0c0,0,2.5,5.7,13.6,12.8c5.7,4,12,7.1,18.7,9.2
				c31,11.9,90.7,22.6,204.3,13.6c0,0,92.5,3.1,140.2-12.6c5.6-1.5,10.8-3.9,15.6-6.9c1.6-1,3.1-2,4.4-3.1c0.1,0,0.1-0.1,0.2-0.1
				C783.1,932.6,791.7,916.3,791.7,898.1z"/></g><g><path fill="#fffff4" d="M1383.9,1136.3c0,0-4.4,7.6-13.5,19.4c-21.6,27.7-69.7,78.3-149.8,105.5c0,0,1-33.9-3.6-74
							c-5.3-45.9-17.8-99.8-47.3-119.7c-5.9-4-11.4-7.7-16.4-11c-41.6-27.8-52-33.7-52-33.7s50.9-78,155.6-123.4
							c0,0,15.2,6.5,35.2,23C1328.8,952.6,1381.5,1016.8,1383.9,1136.3z"/><path fill="#f5f5e8" d="M1383.9,1136.3c0,0-4.4,7.6-13.5,19.4c-23.5,0.1-30.1-3.9-49.7,0.4c-38.2,8.3-44.1,29.9-68.6,34.9
							c-10.9,2.2-23,0.6-35.1-3.7c-5.3-45.9-17.8-99.8-47.3-119.7c-5.9-4-11.4-7.7-16.4-11c16.5-10.3,39.4-14.6,56.7-8.1
							c32.7,12.3,32,58.4,54.8,60.2c19,1.4,43.8-28.6,43.9-57.1c0.2-32.6-32-38.1-34.3-75.2c-1.4-22.4,9-41.9,17.6-53.9
							C1328.8,952.6,1381.5,1016.8,1383.9,1136.3z"/><path fill="#120051" d="M1425.7,1605.4c0,0-45,4.7-53.1,19c-7.1,12.4,39.6,7.1,63.1-0.6s36.3-13.6,36.3-13.6l-22.4-36.4h-18.8
							l9.2,20.3L1425.7,1605.4z"/><path fill="#330075" d="M1387.3,1239.9c0,0,24.7,175,30.5,195.3s54.2,158.3,54.2,158.3l-46.3,11.9c0,0-57.2-150.8-58.2-160.5
							c-1-9.7-34.8-164.5-34.8-164.5L1387.3,1239.9z"/><path fill="#120051" d="M1253.1,1597.5c0,0-6.1,13.9-7.9,17.6c-1.8,3.7-58.2-47.3-64.1-68.3c-5.9-21,15.6-9,30.5,6.6
							c12.3,13,21.1,25.2,21.1,25.2l8.8-10.4l16.6,13.3L1253.1,1597.5z"/><path fill="#33008b" d="M1293,1294c0,0-23.1,206-61.8,288.2c0,0,29,25.1,37.7,17.4c8.7-7.7,116.1-313.5,115.6-338.6
							C1384,1236,1293,1294,1293,1294z"/><g><path fill="#f47a37" d="M1401.4,1242.5c-0.2,8.5-0.5,17.2-1,26.2c0,0-62.6,38.4-107.5,25.3c0,0,1.8-10.5,4.3-26.1
							c7.2-43.7,21-127.7,21.4-136.2c0.5-11.6,8.4-24.3,1.5-56.1c0,0,3.9-20.5,12.5-20c6.6,0.4,15.3,5.5,22.9,1.8
							c0.7-0.3,1.3-0.7,2-1.2l0.1-0.1c1.6-1.2,3.1-2.8,4.5-5.1c5.7-9.1,12.8-8.9,16.8-7.9c2,0.5,3.3,1.3,3.3,1.3s12.8,39.8,17.7,115
							C1401.5,1183.5,1402.2,1211.3,1401.4,1242.5z"/><path fill="#f46e37" d="M1399.9,1159.4c-13.7,1-19.5-29-26.7-36.3c-8.6-8.7-13.5,15.1-25.8,12c-12.3-3.1-0.9-76.6-0.9-76.6
							l11.1-2.3l0.1,0l21.3-12.9c2,0.5,3.3,1.3,3.3,1.3S1395,1084.3,1399.9,1159.4z"/><path fill="#ffc569" d="M1401.4,1242.5c-0.2,8.5-0.5,17.2-1,26.2c0,0-62.6,38.4-107.5,25.3c0,0,1.8-10.5,4.3-26.1
						C1319.7,1266.7,1364.7,1261.9,1401.4,1242.5z"/></g><g><path fill="#f29e91" d="M1335.7,1023.1c0,0,10.2,14.8,3.6,33.8c0,0,18.9,9.1,23.9,3.2s-7.9-45.3-7.9-45.3L1335.7,1023.1z"/><path fill="#f2aa91" d="M1387.3,969.2c0,0-27.9-31.5-57.9-3.6c-28.4,26.5-27.2,48.7-14.9,57.5c10.1,7.2,21.5,8.6,44.2-6.8
							C1381.2,1000.8,1387.3,969.2,1387.3,969.2z"/><path fill="#d1634a" d="M1325.8 969.1c0 0-14.1 11.7-21.9 11.7s5.2 11 9 9.3C1316.7 988.3 1325.8 969.1 1325.8 969.1zM1324 1011.6c-9.3 0-14.8-9-14.9-9.1-.4-.6-.2-1.3.4-1.7.6-.4 1.3-.2 1.7.4.3.5 7.3 11.7 18.6 6.5.6-.3 1.3 0 1.6.6.3.6 0 1.4-.6 1.6C1328.4 1011.2 1326.1 1011.6 1324 1011.6z"/><path fill="#8f343e" d="M1332.4,976.4c-0.9,1-1.9,1.9-2.8,2.9c-1.7,1.7-1.9,4.8,0,6.5c1.8,1.7,4.7,1.9,6.5,0
								c0.9-1,1.9-1.9,2.8-2.9c1.7-1.7,1.9-4.8,0-6.5C1337.1,974.7,1334.2,974.5,1332.4,976.4L1332.4,976.4z"/><path fill="#ffc569" d="M1362.1,984.6l-31.5-29.6c-2.4-2.3-4.1-5.1-5.1-8.2c-1.6-5-2.8-11.7,1.9-11.4c7.5,0.4,19,11.5,19,11.5
							L1362.1,984.6z"/><path fill="#f47a37" d="M1375.2,1008.9c0,0,34.2-14.9,23.1-38.5s-32.8-28.8-51.8-23.6C1346.5,946.8,1362.6,991.1,1375.2,1008.9z
							"/><path fill="#8f343e" d="M1407.8,1095c-5.4,6.5-9.1,13.2-14.2,15.3c-2.8,1.2-6.1,1.1-10.4-1.3c-16.2-8.8-31.7,19.1-38.7-2.5
							c-7-21.6,17.6-29.1,9.5-67c-8-37.9,10.6-49.4,10.6-49.4l4,7.2l6.5,11.6c2,26.9,19.1,39.4,40.2,54.6
							C1436.5,1078.7,1420.9,1079.4,1407.8,1095z"/><path fill="#7a283b" d="M1407.8,1095c-5.4,6.5-9.1,13.2-14.2,15.3c-7.8-13.3-13.5-36.4-22-71.4c-4.8-19.5-6.6-31.7-2.9-41.6
							l6.5,11.6c2,26.9,19.1,39.4,40.2,54.6C1436.5,1078.7,1420.9,1079.4,1407.8,1095z"/></g><g><path fill="#f2aa91" d="M1192.6,1084.7l-29.1-21.3c0,0-5.8,4.7-2,16.9c3.7,12.2,26.4,17.2,26.4,17.2L1192.6,1084.7z"/><path fill="#f45a37" d="M1325,1072.6c0,0-97.3,70-110.4,73.7c-13.2,3.7,10.1,26.7,20.6,26.9c10.5,0.1,85.5-47.7,85.5-47.7
								S1375.8,1055.5,1325,1072.6z"/><g><path fill="#f45a37" d="M1170.8,1115.3c0,0,17.9-35.6,26.5-32.4c8.6,3.2,51.2,85.1,51.2,85.1l-18.8,8
							C1229.8,1176,1217.8,1168.9,1170.8,1115.3z"/></g></g></g><g><path fill="#4074ff" d="M516.8,556.3l-15.8,3.5l-11.1,839.5c0,1.5,12,7,26.8,7c14.8,0,26.8-5.5,26.8-7L516.8,556.3z"/><path fill="#a9d6ff" d="M521.9 556.3c0 0 204.2 64.8 457.3 84.9 0 0-325.8-75.5-451.7-99.8M509.7 541.6c0 0-115.2-279.7-118-414.4 0 0 73.5 215.5 141.9 411.5L509.7 541.6z"/><path fill="#4074ff" d="M538,531.6c0,0-52.4,16.1-59.9,28.1c-7.5,11.9,5.6,23.5,13.1,20.9s52.5-34.1,52.5-34.1L538,531.6z"/><path fill="#a9d6ff" d="M518.5,549.1c0,0,7.5,3.3,0,20S339.1,760.2,215.7,843.7C215.7,843.7,375.9,647.6,518.5,549.1z"/><circle cx="540" cy="539.4" r="8.1" fill="#4052ff"/><g><path fill="#f9dede" d="M1075.2,1848.9c3.2,0,3.2-5,0-5C1072,1843.9,1072,1848.9,1075.2,1848.9L1075.2,1848.9z"/></g><g><path fill="#f9dede" d="M1075.2,1848.9c3.2,0,3.2-5,0-5C1072,1843.9,1072,1848.9,1075.2,1848.9L1075.2,1848.9z"/></g></g><g><path fill="#120051" d="M717.3,1629.1l-7.2,15l-8.1,15.7l-2.5-1.1l8-17.1c-9.9-10-50.8-54.1-63.2-49.9
							c-14.4,4.8,42.9,95.6,60.8,80.3c2.7-2.3,30-25.8,30-25.8L717.3,1629.1z"/><path fill="#330075" d="M695.9,1618c0,0,24.8,34.3,48.6,35.2s156.1-361.8,156.1-361.8l-64.5-76.4
							C836.2,1215,693.1,1592.3,695.9,1618z"/><path fill="#120051" d="M1029.9,1639.3c0,0,30.3,38.8,26.9,43.1c-3.4,4.3-113.8,9.7-113.8,9.7s5.1-36.2,38.8-27.3
							c26.1,6.9,38.9,1.6,40.1-3.1c0.3-1.3,0.1-2.7-0.7-3.8l-9.2-13.6L1029.9,1639.3z"/><path fill="#33008b" d="M830.2,1257.8c0,0,55.5,174.5,60.1,186.9c4.6,12.4,91.3,207.6,103.7,208.5c12.4,1,51.4-9.5,54.3-34.3
							c2.9-24.8-80.9-177.1-90.5-197.1c-9.5-20-52.8-164-52.8-164H830.2z"/><path fill="#f2aa91" d="M856.7,888c0,0-32.7,22.7-34.9,62.7s34.8,41.8,51,26.6c17.7-16.6,34.3-35.4,25.4-67.6
							C889.3,877.6,856.7,888,856.7,888z"/><path fill="#d1634a" d="M830.5 919.8c0 0-3.8 12.7-25.5 23.2 0 0 15 12.1 16.7 7.7C823.4 946.2 830.5 919.8 830.5 919.8zM853.1 965c-6.4 0-13.5-2.6-14.6-3.1-.7-.3-1-1.1-.8-1.7.3-.7 1.1-1 1.7-.8 4.5 1.7 17.1 5.2 20.6.5.4-.6 1.3-.7 1.9-.3.6.4.7 1.3.3 1.9C860.3 964.1 856.8 965 853.1 965z"/><path fill="#330075" d="M842.4,921.8c-0.6,1.3-1.1,2.6-1.7,3.9c-1.1,2.4-0.8,5.6,1.8,6.9c2.2,1.2,5.8,0.8,6.9-1.8
								c0.6-1.3,1.1-2.6,1.7-3.9c1.1-2.4,0.8-5.6-1.8-6.9C847.1,918.8,843.6,919.2,842.4,921.8L842.4,921.8z"/><path fill="#6d283b" d="M884.6,927.7c0,0-5.5,13.1-2.6,20.2c2.9,7.1,3.2,8.1-0.8,12.8c-4,4.7-8,14.5-3.7,16
							c4.3,1.5,27.6-22.8,27.4-36.1C904.8,927.3,884.6,927.7,884.6,927.7z"/><path fill="#f29e91" d="M860.2,984.5c0,0,13,21.7,9.4,35.8l-9.4,5.2c5.3,1.3,14,2.9,25.3-0.8c5.6-1.8,8.6-6.5,8.6-6.5
							s-7.8-2.6-10.4-11.7c-3.6-12.5-7.9-32-7.9-32L860.2,984.5z"/><path fill="#f47a37" d="M846.8,886.4c0,0,14.8-24.2,50.5-11.1c35.7,13.2,14.1,64.7,7.7,65.3
							C898.6,941.3,846.8,886.4,846.8,886.4z"/><path fill="#ffc569" d="M829.8,881.2c-2.3,7.4,5.3,16.1,9.1,21c7.5,9.6,52,28.3,52,28.3l-44.2-44.1
							C846.8,886.4,830.6,878.6,829.8,881.2z"/><g><path fill="#fffff4" d="M586.5,1136.5l306.4,269.8c0,0,27.5-2.8,24.1-30l-289.8-276.1L586.5,1136.5z"/><ellipse cx="606.4" cy="1117.9" fill="#f9dede" rx="27.2" ry="13.9" transform="rotate(-40.819 606.342 1117.792)"/></g><g><path fill="#e04037" d="M860.2,1025.4c0,0-24.2,35.6-30.8,82.4s-13.5,141.5-11,148.4c2.5,6.9,82.8,23.2,94.1,0
							c0,0-13.1-56.7-7.6-121.8c5.6-65.1,4.8-108,0-111.9c-4.8-3.9-10.9-4.5-10.9-4.5L860.2,1025.4z"/><path fill="#f47a37" d="M1003.2,1218.3c0,0-36,61.1-61.1,45.4c-3-1.9-6.7-5.1-10.8-9.3c-8.3-8.5-23.8-13.8-34-28.7
								c-26.9-38.8-49.3-99.4-47.2-129.2c3.3-46.8,29.5-81,44-78.4c14.5,2.5,17.4,8.5,18.4,16.8s-11.8,69,10.8,113.9
								c14,27.6,41,47.5,59.7,58.8C994.8,1214.6,1003.2,1218.3,1003.2,1218.3z"/><path fill="#ffc569" d="M1003.2,1218.3c0,0-36,61.1-61.1,45.4c-3-1.9-6.7-5.1-10.8-9.3c12.6-6.7,39.1-22.8,51.7-46.8
							C994.8,1214.6,1003.2,1218.3,1003.2,1218.3z"/></g><g><path fill="#ba3a3a" d="M885.4,1032.4c0,0-16.3,87.7-111.9,181.4c0,0-15.3,1.5-2.5,20.7c12.8,19.2,34.4,31.1,52.9,17.3
							c18.5-13.8,74.6-114.2,78.9-148.1C905.5,1083.4,915,1014.2,885.4,1032.4z"/><path fill="#f2aa91" d="M791,1253.5c0,0-27.4,41-43.4,37.7c-16.1-3.3-18-14.8-15.1-18.8c2.8-3.9,5.7-0.7,9.9-4.2
							c4.3-3.5,28.7-33.7,28.7-33.7L791,1253.5z"/></g></g></g></switch></svg>